<svg xmlns="http://www.w3.org/2000/svg" xmlns:xlink="http://www.w3.org/1999/xlink" viewBox="0 0 627 508">
  <defs>
    <style>
      .cls-1 {
        clip-path: url(#clip-resume);
      }

      .cls-2, .cls-3, .cls-6 {
        fill: none;
      }

      .cls-2, .cls-3, .cls-4 {
        stroke: #707070;
      }

      .cls-2 {
        stroke-width: 6px;
      }

      .cls-3 {
        stroke-width: 5px;
      }

      .cls-4 {
        fill: #707070;
      }

      .cls-5 {
        stroke: none;
      }
    </style>
    <clipPath id="clip-resume">
      <rect width="627" height="508"/>
    </clipPath>
  </defs>
  <g id="resume" class="cls-1">
    <g id="Rectangle_15" data-name="Rectangle 15" class="cls-2" transform="translate(144 77)">
      <rect class="cls-5" width="325" height="354" rx="21"/>
      <rect class="cls-6" x="3" y="3" width="319" height="348" rx="18"/>
    </g>
    <line id="Line_1" data-name="Line 1" class="cls-3" x2="315" transform="translate(149.5 112.5)"/>
    <line id="Line_2" data-name="Line 2" class="cls-3" x2="121" transform="translate(306.5 163.5)"/>
    <line id="Line_3" data-name="Line 3" class="cls-3" x2="103" transform="translate(306.5 198.5)"/>
    <line id="Line_4" data-name="Line 4" class="cls-3" y1="1" x2="72" transform="translate(306.5 232.5)"/>
    <g id="Rectangle_16" data-name="Rectangle 16" class="cls-3" transform="translate(170 280)">
      <rect class="cls-5" width="258" height="32"/>
      <rect class="cls-6" x="2.5" y="2.5" width="253" height="27"/>
    </g>
    <g id="Rectangle_17" data-name="Rectangle 17" class="cls-3" transform="translate(170 333)">
      <rect class="cls-5" width="118" height="72"/>
      <rect class="cls-6" x="2.5" y="2.5" width="113" height="67"/>
    </g>
    <g id="Rectangle_18" data-name="Rectangle 18" class="cls-3" transform="translate(314 333)">
      <rect class="cls-5" width="118" height="72"/>
      <rect class="cls-6" x="2.5" y="2.5" width="113" height="67"/>
    </g>
    <path id="Path_1" data-name="Path 1" class="cls-3" d="M602.422,1551.495c-39.776,1.3-30.038,56.78-30.038,56.78H672.54" transform="translate(-400 -1358)"/>
    <path id="Path_2" data-name="Path 2" class="cls-3" d="M672.238,1607.056c7.346-55.637-30.25-56.47-30.25-56.47l-19.56,29.3-20.392-29.3" transform="translate(-402 -1358)"/>
    <g id="Ellipse_3" data-name="Ellipse 3" class="cls-3" transform="translate(193 135)">
      <ellipse class="cls-5" cx="28.5" cy="26.5" rx="28.5" ry="26.5"/>
      <ellipse class="cls-6" cx="28.5" cy="26.5" rx="26" ry="24"/>
    </g>
    <g id="Rectangle_19" data-name="Rectangle 19" class="cls-4" transform="translate(167 88)">
      <rect class="cls-5" width="10" height="9"/>
      <rect class="cls-6" x="0.5" y="0.5" width="9" height="8"/>
    </g>
    <g id="Rectangle_20" data-name="Rectangle 20" class="cls-4" transform="translate(186 88)">
      <rect class="cls-5" width="10" height="9"/>
      <rect class="cls-6" x="0.5" y="0.5" width="9" height="8"/>
    </g>
    <g id="Rectangle_21" data-name="Rectangle 21" class="cls-4" transform="translate(205 88)">
      <rect class="cls-5" width="10" height="9"/>
      <rect class="cls-6" x="0.5" y="0.5" width="9" height="8"/>
    </g>
  </g>
</svg>
