<?xml version="1.0" encoding="utf-8"?>
<!-- Generator: Adobe Illustrator 21.1.0, SVG Export Plug-In . SVG Version: 6.00 Build 0)  -->
<svg version="1.1" id="Layer_1" xmlns="http://www.w3.org/2000/svg" xmlns:xlink="http://www.w3.org/1999/xlink" x="0px" y="0px"
	 viewBox="0 0 73.5 56.4" style="enable-background:new 0 0 73.5 56.4;" xml:space="preserve">
<style type="text/css">
	.st0{fill:none;stroke:#FFFFFF;stroke-width:2.6322;stroke-linecap:square;stroke-miterlimit:10;}
	.st1{fill:none;stroke:#FFFFFF;stroke-width:2.6322;stroke-linecap:square;stroke-linejoin:round;stroke-miterlimit:10;}
	.st2{fill:none;stroke:#FFFFFF;stroke-width:2.6322;stroke-miterlimit:10;}
</style>
<g id="_x31_9">
	<polyline class="st0" points="36.3,24.8 36.3,11.8 28.3,3.9 1.4,3.9 1.4,51.4 25.1,51.4 	"/>
	<polyline class="st1" points="28.3,9 28.3,3.9 36.3,11.8 29.9,11.8 	"/>
	<polyline class="st0" points="28.3,7.8 28.3,11.8 29.9,11.8 	"/>
	<polyline class="st0" points="47.6,30.1 59.7,30.1 59.7,51.5 30.2,51.5 30.2,30.1 47.6,30.1 	"/>
	<polyline class="st0" points="35.2,34.5 45,41.1 55,34.4 	"/>
	<line class="st2" x1="6.3" y1="21.4" x2="26.1" y2="21.4"/>
	<line class="st2" x1="6.3" y1="26.3" x2="26.1" y2="26.3"/>
	<line class="st2" x1="6.3" y1="31.1" x2="16.2" y2="31.1"/>
	<rect x="40.3" y="12.3" class="st0" width="19.5" height="12.5"/>
	<polygon class="st0" points="68.4,45.8 66.5,49.3 65.9,49.3 64,45.8 64,18.6 68.4,18.6 	"/>
	<line class="st0" x1="66.2" y1="49.3" x2="66.2" y2="51.4"/>
	<polyline class="st0" points="71.8,29.3 71.8,22.1 69,22.1 	"/>
	<circle class="st2" cx="10.1" cy="13.1" r="2.9"/>
	<circle class="st2" cx="53.4" cy="44.9" r="2.1"/>
	<line class="st2" x1="44.5" y1="16.4" x2="52.9" y2="16.4"/>
	<line class="st2" x1="44.5" y1="20.2" x2="55.5" y2="20.2"/>
</g>
</svg>
