<?xml version="1.0" encoding="utf-8"?>
<!-- Generator: Adobe Illustrator 21.1.0, SVG Export Plug-In . SVG Version: 6.00 Build 0)  -->
<svg version="1.1" id="Layer_1" xmlns="http://www.w3.org/2000/svg" xmlns:xlink="http://www.w3.org/1999/xlink" x="0px" y="0px"
	 viewBox="0 0 73.5 56.4" style="enable-background:new 0 0 73.5 56.4;" xml:space="preserve">
<style type="text/css">
	.st0{fill:none;stroke:#FFFFFF;stroke-width:2.6322;stroke-miterlimit:10;}
	.st1{fill:none;stroke:#FFFFFF;stroke-width:2.6322;stroke-linecap:square;stroke-miterlimit:10;}
</style>
<g id="_x33_">
	<rect x="3.7" y="1.4" class="st0" width="66.9" height="53.5"/>
	<line class="st1" x1="3.7" y1="8.8" x2="63.5" y2="8.8"/>
	<line class="st0" x1="7.9" y1="5.1" x2="10.3" y2="5.1"/>
	<line class="st0" x1="12.7" y1="5.1" x2="15.1" y2="5.1"/>
	<line class="st0" x1="17.5" y1="5.1" x2="19.9" y2="5.1"/>
	<line class="st1" x1="11.2" y1="16.1" x2="18.4" y2="16.1"/>
	<line class="st1" x1="11.2" y1="28.8" x2="21.7" y2="28.8"/>
	<line class="st1" x1="29.5" y1="41.5" x2="34" y2="41.5"/>
	<line class="st1" x1="11.2" y1="47.8" x2="24.2" y2="47.8"/>
	<line class="st1" x1="11.2" y1="22.5" x2="15.9" y2="22.5"/>
	<line class="st1" x1="27.1" y1="28.8" x2="31.9" y2="28.8"/>
	<line class="st1" x1="21.3" y1="22.5" x2="23.3" y2="22.5"/>
	<line class="st1" x1="11.2" y1="41.5" x2="15.9" y2="41.5"/>
	<line class="st1" x1="21.7" y1="41.5" x2="23.7" y2="41.5"/>
	<line class="st1" x1="29.5" y1="47.8" x2="31.4" y2="47.8"/>
	<line class="st1" x1="27.1" y1="35.1" x2="18.9" y2="35.1"/>
	<line class="st1" x1="13.1" y1="35.1" x2="11.2" y2="35.1"/>
	<polyline class="st1" points="44.5,30.1 40.4,35 44.5,39.8 	"/>
	<polyline class="st1" points="57.8,39.8 61.9,35 57.8,30.1 	"/>
	<line class="st1" x1="49" y1="41.1" x2="53.3" y2="28.8"/>
</g>
</svg>
