<?xml version="1.0" encoding="utf-8"?>
<!-- Generator: Adobe Illustrator 21.1.0, SVG Export Plug-In . SVG Version: 6.00 Build 0)  -->
<svg version="1.1" id="Layer_1" xmlns="http://www.w3.org/2000/svg" xmlns:xlink="http://www.w3.org/1999/xlink" x="0px" y="0px"
	 viewBox="0 0 73.5 56.4" style="enable-background:new 0 0 73.5 56.4;" xml:space="preserve">
<style type="text/css">
	.st0{fill:none;stroke:#FFFFFF;stroke-width:2.6322;stroke-linecap:square;stroke-miterlimit:10;}
	.st1{fill:none;stroke:#FFFFFF;stroke-width:2.6322;stroke-miterlimit:10;}
	.st2{fill:none;stroke:#FFFFFF;stroke-width:2.6322;stroke-linecap:square;stroke-linejoin:round;stroke-miterlimit:10;}
</style>
<g id="_x31_4">
	<polyline class="st0" points="69,6.7 69,46.1 4.5,46.1 4.5,1.4 69,1.4 	"/>
	<polyline class="st1" points="45.2,49.2 45.2,54.9 28.3,54.9 28.3,46.1 45.2,46.1 	"/>
	<line class="st1" x1="22.2" y1="54.9" x2="51.3" y2="54.9"/>
	<line class="st1" x1="4.5" y1="38.6" x2="64" y2="38.6"/>
	<rect x="51.3" y="7.2" class="st0" width="11.5" height="25.6"/>
	<line class="st0" x1="11.1" y1="7.2" x2="12.4" y2="7.2"/>
	<line class="st0" x1="11.1" y1="11.7" x2="12.4" y2="11.7"/>
	<line class="st0" x1="11.1" y1="16.1" x2="12.4" y2="16.1"/>
	<line class="st0" x1="11.1" y1="20.6" x2="12.4" y2="20.6"/>
	<line class="st0" x1="11.1" y1="25" x2="12.4" y2="25"/>
	<line class="st2" x1="55.4" y1="11.5" x2="58.6" y2="11.5"/>
	<line class="st2" x1="55.4" y1="15.8" x2="58.6" y2="15.8"/>
	<line class="st2" x1="55.4" y1="20.2" x2="58.6" y2="20.2"/>
	<line class="st2" x1="55.4" y1="24.5" x2="58.6" y2="24.5"/>
	<line class="st2" x1="55.4" y1="28.9" x2="58.6" y2="28.9"/>
	<line class="st0" x1="18" y1="33" x2="45.4" y2="33"/>
	<line class="st0" x1="45.4" y1="7.2" x2="18" y2="7.2"/>
	<polyline class="st0" points="43.4,26.6 39.5,22.5 35.6,26.6 	"/>
	<polyline class="st0" points="20.6,26.6 29.6,17 34.6,22.2 	"/>
	<circle class="st0" cx="41.6" cy="15.4" r="2.1"/>
</g>
</svg>
